<?xml version="1.0" encoding="iso-8859-1"?>
<!-- Generator: Adobe Illustrator 23.0.1, SVG Export Plug-In . SVG Version: 6.00 Build 0)  -->
<svg version="1.1" id="Layer_1" xmlns="http://www.w3.org/2000/svg" xmlns:xlink="http://www.w3.org/1999/xlink" x="0px" y="0px"
	 viewBox="0 0 512 512" style="enable-background:new 0 0 512 512;" xml:space="preserve">
<g>
	
		<linearGradient id="SVGID_1_" gradientUnits="userSpaceOnUse" x1="-1603.6838" y1="302.6922" x2="-1004.0024" y2="150.159" gradientTransform="matrix(-1 0.0026 -0.0026 -1 -1081.2805 507.285)">
		<stop  offset="0" style="stop-color:#156CB4"/>
		<stop  offset="0.4315" style="stop-color:#514999"/>
		<stop  offset="1" style="stop-color:#9D1C77"/>
	</linearGradient>
	<path style="fill:url(#SVGID_1_);" d="M238.123,417.961c-12.044-4.975-23.303-11.259-33.515-18.59l0,0
		c-19.899-11.259-35.871-16.234-47.654-18.328c-1.047,0-17.543-1.047-36.918,5.237l0,0c-14.924,4.975-31.682,4.713-47.392-1.833
		c-34.562-14.139-50.796-53.676-36.395-88.238c0.785-1.833,1.571-3.404,2.356-4.975c8.64-16.757,23.303-28.278,40.322-33.515l0,0
		c19.376-6.284,32.205-16.495,33.253-17.019c8.64-8.64,18.59-21.732,28.278-42.679l0,0c1.047-3.142,2.357-6.284,3.666-9.426
		c1.833-4.451,3.928-8.902,6.022-13.092c41.108-80.383,137.986-116.778,222.82-81.43c89.547,37.18,131.702,139.819,94.522,229.366
		C430.308,412.724,327.67,455.141,238.123,417.961"/>
	<g>
		<ellipse style="fill:#FFFFFF;" cx="347.569" cy="254.839" rx="5.498" ry="5.498"/>
		<path style="fill:#FFFFFF;" d="M392.081,302.754c0,6.546-3.666,11.782-10.473,11.782h-6.546v-29.849l0,0l0,0
			c-4.713-4.713-9.688-6.546-15.71-6.546c-12.568,0-23.303,7.593-23.303,23.041s10.473,23.041,23.303,23.041h4.975v2.618
			c0,4.713-0.786,7.593-4.451,7.593c-1.571,0-3.404-0.262-5.237-1.309l-3.927,8.379c3.142,2.095,6.546,2.88,9.688,2.88
			c9.95,0,14.663-7.069,14.663-17.805v-2.618h9.95c10.473,0,18.066-7.855,18.066-21.47v-40.06h-10.735v40.322H392.081z
			 M359.351,314.013c-6.808,0-12.306-4.451-12.306-12.83c0-7.593,5.237-12.83,12.568-12.83c1.571,0,3.404,0.262,4.975,1.047v24.612
			H359.351z"/>
		<path style="fill:#FFFFFF;" d="M199.371,319.512c0,8.379,12.83,8.379,12.83,0C212.201,311.133,199.371,311.133,199.371,319.512z"
			/>
		<rect x="414.598" y="262.432" style="fill:#FFFFFF;" width="10.735" height="62.054"/>
		<rect x="318.767" y="262.432" style="fill:#FFFFFF;" width="10.735" height="62.054"/>
		<path style="fill:#FFFFFF;" d="M288.918,278.142c-6.284,0-10.997,1.833-15.71,6.546l6.808,7.069
			c2.618-2.357,5.76-3.404,8.902-3.404c7.331,0,12.568,5.237,12.568,12.83v13.353h-28.54l0,0c-6.808,0-10.473-4.975-10.473-11.782
			l0,0c0-0.524,0-1.047,0-1.571c0-15.448-10.473-23.041-23.303-23.041c-6.284,0-10.997,1.833-15.71,6.546l6.808,7.069
			c2.618-2.357,5.76-3.404,8.902-3.404c7.331,0,12.568,5.237,12.568,12.83c0,8.379-5.76,12.83-12.306,12.83h-15.71v10.473h15.71
			c6.546,0,12.568-2.095,17.019-6.284c3.142,3.927,7.593,6.022,12.568,6.284l0,0h32.467l0,0h10.735v-23.041
			C312.222,285.735,301.748,278.142,288.918,278.142z"/>
		<path style="fill:#FFFFFF;" d="M423.762,249.34v-9.95h-15.972h-2.88c-7.069,0-15.186-3.927-15.186-15.186
			s8.117-15.186,15.186-15.186c4.189,0,8.117,1.571,10.997,4.451l2.095,2.095l7.069-6.808l-2.095-2.095
			c-4.975-4.713-11.259-7.331-18.066-7.331c-14.924,0-25.398,10.473-25.398,25.398c0,6.022,1.833,10.997,4.713,15.186h-20.161
			c-7.855,0-12.044-4.451-12.306-12.306v-28.802l0,0h-10.212l0,0v28.278c0,7.855-4.451,12.306-12.568,12.306l0,0h-3.142l0,0h-14.663
			c3.142-4.189,4.713-9.426,4.713-15.186c0-14.924-10.473-25.398-25.398-25.398c-6.808,0-13.092,2.618-18.066,7.331l-2.357,2.095
			l7.069,6.808l2.095-2.095c2.88-2.88,6.808-4.451,10.997-4.451c7.069,0,15.186,3.927,15.186,15.186s-8.117,15.186-15.186,15.186
			h-2.88h-15.972v9.95h15.972h2.88h36.133h2.88h0.785l0,0c7.069-0.262,12.83-2.88,16.757-7.331
			c3.927,4.451,9.688,7.069,16.495,7.331l0,0h1.047l0,0h2.88l0,0h37.704l0,0h2.88l0,0h15.972V249.34z"/>
	</g>
	<g>
		<path style="fill:#FFFFFF;" d="M119.512,332.603c-0.785-0.262-1.571-0.786-2.095-1.309c-0.785-0.524-1.309-1.047-1.833-1.833
			c-0.524-0.786-0.785-1.309-1.309-2.095c-0.262-0.786-0.524-1.571-0.524-2.357c0-1.309,0.524-2.357,1.571-2.88
			c0.262,0,0.524-0.262,0.785-0.262c0.262,0,0.524,0,0.785-0.262h3.666c-0.524-0.786-0.785-1.571-1.047-2.618
			s-0.262-1.833-0.262-2.88c0-1.309,0.262-2.618,0.785-3.927s1.047-2.357,2.095-3.142c0.785-1.047,1.833-1.571,2.88-2.095
			c1.047-0.524,2.356-0.785,3.666-0.785c1.309,0,2.618,0.262,3.666,0.785c1.047,0.524,2.095,1.309,2.88,2.095
			c0.785,1.047,1.571,2.095,2.095,3.142c0.524,1.309,0.785,2.618,0.785,3.927s-0.262,2.618-0.785,3.927
			c-0.524,1.309-1.047,2.357-2.095,3.142c-0.786,1.047-1.833,1.571-2.88,2.095c-1.047,0.524-2.357,0.786-3.666,0.786
			c-1.047,0-2.095-0.262-2.88-0.524c-1.047-0.262-1.833-0.785-2.357-1.309h-3.666h-1.571l-0.262,0.262v0.262
			c0,0.524,0,1.047,0.262,1.571c0,0.524,0.262,1.047,0.524,1.571c0.262,0.524,0.524,1.047,0.785,1.309
			c0.262,0.524,0.785,0.786,1.047,0.786l-0.262,2.095h-0.785V332.603z M128.415,323.701c0.785,0,1.571-0.262,2.357-0.785
			c0.524-0.524,1.047-1.047,1.571-1.833c0.524-0.785,0.786-1.571,0.786-2.357c0-0.786,0.262-1.833,0.262-2.618
			c0-0.785,0-1.571-0.262-2.618c-0.262-1.047-0.524-1.571-0.786-2.357c-0.262-0.785-0.785-1.309-1.571-1.833
			c-0.786-0.524-1.309-0.785-2.357-0.785c-1.047,0-1.571,0.262-2.356,0.785s-1.047,1.047-1.571,1.833
			c-0.262,0.786-0.785,1.571-0.785,2.357s-0.262,1.833-0.262,2.618c0,0.786,0,1.571,0.262,2.618
			c0.262,1.047,0.524,1.571,0.785,2.356c0.262,0.786,0.785,1.309,1.571,1.833C126.582,323.439,127.367,323.701,128.415,323.701z"/>
		<path style="fill:#FFFFFF;" d="M160.62,324.486c0,1.309-0.262,2.357-0.785,3.142c-0.524,1.047-1.047,1.833-2.095,2.357
			c-0.785,0.786-1.833,1.309-3.142,1.571c-1.309,0.262-2.357,0.524-3.927,0.524l0.524-2.357c0.785,0,1.571-0.262,2.095-0.524
			c0.524-0.262,1.047-0.786,1.571-1.309c0.524-0.524,0.786-1.047,1.047-1.833c0.262-0.785,0.262-1.309,0.262-2.095v-1.571
			c-0.786,0.524-1.571,0.786-2.357,1.309c-0.785,0.262-1.571,0.524-2.357,0.524c-1.309,0-2.356-0.262-3.666-0.785
			c-1.047-0.524-2.095-1.309-2.88-2.095c-0.785-1.047-1.571-2.095-2.095-3.142c-0.524-1.309-0.785-2.618-0.785-3.927
			s0.262-2.618,0.785-3.927c0.524-1.309,1.047-2.357,2.095-3.404c0.785-1.047,1.833-1.833,2.88-2.357
			c1.047-0.524,2.357-0.786,3.666-0.786c1.309,0,2.618,0.262,3.666,0.786c1.047,0.524,2.095,1.309,2.88,2.357
			c0.785,1.047,1.571,2.095,2.095,3.404c0.524,1.309,0.786,2.618,0.786,3.927c0,1.047,0,2.095,0.262,2.88s0.524,1.571,0.785,2.357
			c0.262,0.785,0.786,1.047,1.309,1.571s1.309,0.524,2.095,0.524h0.786v2.618h-0.785c-1.047,0-1.833-0.262-2.618-0.524
			c-0.785-0.262-1.571-0.786-2.095-1.309V324.486z M151.456,321.868c1.571,0,2.618-0.785,3.404-2.095
			c0.786-1.309,1.047-3.142,1.047-5.499c0-1.047,0-2.095-0.262-3.142c-0.262-1.047-0.524-1.833-0.785-2.618
			c-0.262-0.785-0.786-1.309-1.309-1.833c-0.524-0.524-1.309-0.524-1.833-0.524s-1.309,0.262-1.833,0.524
			c-0.524,0.524-1.047,1.047-1.309,1.833c-0.262,0.786-0.524,1.571-0.786,2.618c-0.786,1.047-0.786,2.095-0.786,3.142
			c0,2.095,0.262,3.928,1.047,5.499C148.838,321.083,149.885,321.868,151.456,321.868z"/>
		<path style="fill:#FFFFFF;" d="M184.971,305.111c1.047,0.524,2.095,1.309,2.88,2.357c0.785,1.047,1.309,2.095,1.833,3.142
			c0.524,1.309,0.786,2.618,0.786,3.927s-0.262,2.357-0.524,3.666c-0.524,1.047-1.047,2.095-1.833,3.142
			c-0.785,0.786-1.833,1.571-2.88,2.357c-1.047,0.524-2.357,1.047-3.666,1.047h-15.71v-2.618h15.71c0.785,0,1.571-0.262,2.356-0.786
			s1.047-1.047,1.571-1.833c0.262-0.785,0.524-1.571,0.785-2.356c0.262-0.786,0.262-1.833,0.262-2.618c0-0.785,0-1.571-0.262-2.618
			c-0.262-0.786-0.524-1.833-0.785-2.357c-0.262-0.786-0.785-1.309-1.309-1.833c-0.524-0.524-1.309-0.786-2.095-0.786h-11.259
			v-2.356c0-1.571,0.262-2.88,1.047-3.928c0.524-1.309,1.571-2.356,2.618-3.142c1.047-1.047,2.357-1.571,3.927-2.095
			c1.571-0.524,3.142-0.785,4.975-0.785l-0.524,2.095c-1.309,0-2.357,0.262-3.404,0.786c-1.047,0.524-1.571,1.047-2.356,1.833
			c-0.524,0.785-1.047,1.571-1.309,2.618c-0.262,1.047-0.524,1.833-0.524,2.618h6.808
			C182.614,304.063,183.923,304.325,184.971,305.111z"/>
	</g>
</g>
</svg>
