<?xml version="1.0" encoding="iso-8859-1"?>
<!-- Generator: Adobe Illustrator 23.0.1, SVG Export Plug-In . SVG Version: 6.00 Build 0)  -->
<svg version="1.1" id="Layer_1" xmlns="http://www.w3.org/2000/svg" xmlns:xlink="http://www.w3.org/1999/xlink" x="0px" y="0px"
	 viewBox="0 0 512 512" style="enable-background:new 0 0 512 512;" xml:space="preserve">
<g>
	<g>
		
			<linearGradient id="SVGID_1_" gradientUnits="userSpaceOnUse" x1="-6.3417" y1="306.7738" x2="593.162" y2="154.286" gradientTransform="matrix(1 0.0026 0.0026 -1 -3.9627 507.285)">
			<stop  offset="0" style="stop-color:#156CB4"/>
			<stop  offset="0.4315" style="stop-color:#514999"/>
			<stop  offset="1" style="stop-color:#9D1C77"/>
		</linearGradient>
		<path style="fill:url(#SVGID_1_);" d="M475.826,296.253c-0.796-1.856-1.591-3.448-2.387-5.039
			c-8.487-16.708-23.339-28.378-40.312-33.682l0,0c-19.626-6.365-32.356-16.443-33.151-17.239
			c-8.487-8.487-18.565-21.747-28.112-42.434l0,0c-1.061-3.183-2.387-6.1-3.448-9.282c-1.856-4.509-3.978-8.752-6.1-12.995
			c-41.373-80.359-138.44-116.693-223.307-81.42C49.633,131.292,7.2,233.928,44.594,323.304
			c37.129,89.376,139.766,131.81,229.142,94.415c12.2-5.039,23.339-11.404,33.682-18.565l0,0
			c19.891-11.404,35.803-16.443,47.738-18.3c1.061,0,17.504-1.061,36.864,5.304l0,0c14.852,5.039,31.56,4.774,47.207-1.591
			C473.705,370.247,490.148,330.73,475.826,296.253z"/>
		<g>
			<g>
				<path style="fill:#FFFFFF;" d="M99.758,218.016h9.548v40.577h-9.548l-0.53-5.835c-2.387,4.774-8.752,7.161-13.261,7.161
					c-11.934,0-20.952-7.426-20.952-21.747c0-14.056,9.282-21.217,21.217-21.217c5.304,0,10.608,2.652,12.995,6.63L99.758,218.016z
					 M75.359,238.437c0,7.691,5.304,12.465,11.934,12.465c15.913,0,15.913-24.665,0-24.665
					C80.663,225.972,75.359,230.481,75.359,238.437z"/>
				<path style="fill:#FFFFFF;" d="M127.075,201.307v22.543c2.387-4.243,9.017-6.365,13.261-6.365
					c11.934,0,20.686,7.426,20.686,21.217c0,13.261-9.017,21.217-20.952,21.217c-5.039,0-10.078-1.591-12.995-6.63l-0.796,5.569
					h-9.282l0.265-57.551L127.075,201.307z M127.605,238.437c0,7.426,5.304,11.934,11.669,11.934s11.669-4.774,11.669-11.934
					c0-7.426-5.039-11.934-11.404-11.934C133.175,226.502,127.605,231.276,127.605,238.437z"/>
				<path style="fill:#FFFFFF;" d="M210.616,201.573l-0.265,57.551h-9.282l-0.53-5.835c-3.183,4.774-8.222,6.365-12.995,6.365
					c-11.934,0-20.952-7.956-20.952-21.217c0-14.056,8.752-21.217,20.686-21.217c4.243,0,10.874,2.387,13.261,6.63v-22.543
					L210.616,201.573z M176.669,238.702c0,7.161,5.039,11.934,11.404,11.934s11.669-4.509,11.934-11.934
					c0-7.161-5.304-11.934-11.669-11.934C181.708,226.768,176.669,231.276,176.669,238.702z"/>
				<path style="fill:#FFFFFF;" d="M228.916,218.546v21.217c0,6.1,3.448,10.874,9.813,10.874c6.1,0,10.343-5.039,10.343-11.404
					v-20.686h10.078v40.577h-9.017l-0.53-5.569c-4.243,3.978-7.956,6.1-13.791,6.1c-9.813,0-16.708-7.426-16.708-19.891v-21.217
					L228.916,218.546z"/>
				<path style="fill:#FFFFFF;" d="M277.714,201.573l-0.265,57.551h-10.078l0.265-57.551H277.714z"/>
			</g>
			<g>
				<path style="fill:#FFFFFF;" d="M104.532,286.97l8.752,30.764l9.282-30.499h11.139l-14.321,40.842h-11.669l-4.243-11.934
					l-3.713-13.526l-3.713,13.526l-4.243,11.934H80.132l-14.056-40.842h11.139l9.282,30.499l9.017-30.499L104.532,286.97z"/>
				<path style="fill:#FFFFFF;" d="M169.774,287.236h9.548v40.577h-9.548l-0.53-5.835c-2.387,4.774-8.752,7.161-13.261,7.161
					c-11.934,0-20.952-7.426-20.952-21.747c0-14.056,9.282-21.217,21.217-21.217c5.304,0,10.608,2.652,12.995,6.63L169.774,287.236z
					 M145.374,307.392c0,7.691,5.304,12.465,11.934,12.465c15.913,0,15.913-24.665,0-24.665
					C150.678,295.192,145.374,299.701,145.374,307.392z"/>
				<path style="fill:#FFFFFF;" d="M197.886,270.262v22.543c3.713-4.774,7.956-6.1,12.73-6.1c11.404,0,16.708,7.956,16.708,19.891
					v21.482h-10.078v-21.217c0-7.426-3.713-10.608-9.282-10.608c-5.835,0-10.078,5.039-10.078,11.139v20.686h-10.078l0.265-57.551
					L197.886,270.262z"/>
				<path style="fill:#FFFFFF;" d="M244.033,311.37c0.53,5.039,5.039,8.752,12.2,8.752c3.713,0,8.487-1.326,10.874-3.713
					l6.365,6.365c-4.243,4.509-11.404,6.63-17.504,6.63c-14.056,0-22.278-8.752-22.278-21.747c0-12.465,8.487-21.217,21.747-21.217
					c13.526,0,22.012,8.487,20.421,25.195L244.033,311.37z M266.31,303.148c-0.53-5.304-4.774-7.956-10.608-7.956
					c-5.304,0-9.813,2.652-11.404,7.956H266.31z"/>
				<path style="fill:#FFFFFF;" d="M325.717,270.793v57.551h-9.282l-0.53-5.569c-3.182,4.774-8.221,6.365-12.995,6.365
					c-11.934,0-20.952-7.956-20.952-21.217c0-14.056,8.752-21.217,20.686-21.217c4.243,0,10.874,2.387,13.26,6.63v-22.543H325.717z
					 M291.77,307.922c0,7.161,5.039,11.934,11.404,11.934s11.669-4.509,11.934-11.934c0-7.161-5.304-11.934-11.669-11.934
					C296.809,295.988,291.77,300.496,291.77,307.922z"/>
			</g>
			<path style="fill:#FFFFFF;" d="M348.26,324.365c0,3.182-2.652,5.569-5.835,5.569s-5.569-2.652-5.569-5.835
				c0-3.182,2.652-5.569,5.835-5.569C345.873,318.531,348.26,321.183,348.26,324.365"/>
		</g>
	</g>
	<g>
		<path style="fill:#FFFFFF;" d="M358.603,319.061c0-2.652,0.796-4.774,2.652-6.63s3.978-2.652,6.63-2.652
			c2.122,0,4.243,0.53,5.835,1.856c0.265,0.265,0.53,0.53,0.53,0.796c0,0.265,0,0.53-0.265,0.796l-0.265,0.53
			c-0.265,0.265-0.53,0.53-0.796,0.53c-0.265,0-0.53,0-0.796-0.265c-1.326-0.796-2.387-1.326-3.978-1.326
			c-1.856,0-3.183,0.53-4.243,1.856c-1.061,1.061-1.591,2.652-1.591,4.509c0,1.856,0.53,3.182,1.856,4.509
			c1.061,1.326,2.652,1.856,4.509,1.856c1.591,0,2.917-0.53,4.509-1.591c0.265-0.265,0.53-0.265,0.796-0.265s0.53,0.265,0.796,0.53
			l0.265,0.53c0.265,0.265,0.265,0.53,0.265,0.796c0,0.265-0.265,0.53-0.53,0.796c-1.856,1.326-3.713,2.122-6.1,2.122
			c-2.652,0-5.039-0.796-6.63-2.652C359.664,323.835,358.603,321.448,358.603,319.061z"/>
		<path style="fill:#FFFFFF;" d="M376.903,318.796c0-1.591,0.53-3.183,1.326-4.774c0.796-1.326,1.856-2.387,3.448-3.183
			c1.591-0.796,2.917-1.061,4.774-1.061c1.326,0,2.387,0.265,3.713,0.796c1.061,0.53,2.122,1.061,2.917,1.856
			c0.796,0.796,1.591,1.856,2.122,2.917c0.53,1.061,0.796,2.387,0.796,3.713c0,1.856-0.53,3.183-1.326,4.774
			c-0.796,1.326-1.856,2.387-3.448,3.183c-1.326,0.796-2.917,1.061-4.774,1.061c-1.856,0-3.183-0.265-4.774-1.061
			c-1.326-0.796-2.652-1.856-3.448-3.183C377.433,322.243,376.903,320.652,376.903,318.796z M380.351,318.796
			c0,1.856,0.53,3.183,1.856,4.509c1.061,1.326,2.652,1.856,4.243,1.856s3.182-0.53,4.243-1.856
			c1.061-1.061,1.856-2.652,1.856-4.509s-0.53-3.183-1.856-4.509s-2.652-1.856-4.243-1.856s-3.183,0.53-4.243,1.856
			C381.146,315.613,380.351,317.204,380.351,318.796z"/>
		<path style="fill:#FFFFFF;" d="M399.446,326.487V311.37c0-0.796,0.265-1.061,1.061-1.061h1.061c0.796,0,1.061,0.265,1.061,1.061
			v1.591v1.061l0,0c0.53-1.061,1.326-2.122,2.387-2.917c1.061-0.796,2.387-1.326,3.713-1.326c2.917,0,4.509,1.326,5.304,3.978l0,0
			c0.53-1.061,1.326-2.122,2.387-2.917s2.387-1.061,3.713-1.061c1.856,0,3.448,0.53,4.243,1.591
			c1.061,1.061,1.326,2.652,1.326,5.039v10.078c0,0.796-0.265,1.061-1.061,1.061h-1.061c-0.796,0-1.061-0.265-1.061-1.061v-9.282
			c0-0.796,0-1.326,0-1.856c0-0.53-0.265-1.061-0.53-1.326c-0.265-0.265-0.53-0.796-1.061-1.061
			c-0.53-0.265-1.061-0.265-1.591-0.265c-1.061,0-1.856,0.265-2.652,1.061c-0.796,0.796-1.326,1.591-1.856,2.387
			c-0.265,1.061-0.53,2.122-0.53,3.183v6.895c0,0.796-0.265,1.061-1.061,1.061h-1.061c-0.796,0-1.061-0.265-1.061-1.061v-9.282
			c0-0.53,0-1.326,0-1.591c0-0.53-0.265-0.796-0.53-1.326c-0.265-0.53-0.53-0.796-1.061-1.061c-0.53-0.265-1.061-0.265-1.591-0.265
			c-1.061,0-1.856,0.265-2.917,1.061c-0.796,0.796-1.326,1.591-1.856,2.387c-0.265,1.061-0.53,2.122-0.53,3.183v6.895
			c0,0.796-0.265,1.061-1.061,1.061h-1.061C399.976,327.548,399.446,327.282,399.446,326.487z"/>
	</g>
</g>
</svg>
