<?xml version="1.0" encoding="utf-8"?>
<!-- Generator: Adobe Illustrator 27.5.0, SVG Export Plug-In . SVG Version: 6.00 Build 0)  -->
<svg version="1.1" id="Слой_1" xmlns="http://www.w3.org/2000/svg" xmlns:xlink="http://www.w3.org/1999/xlink" x="0px" y="0px"
	 viewBox="0 0 960 319.8" style="enable-background:new 0 0 960 319.8;" xml:space="preserve">
<style type="text/css">
	.st0{fill:#15259C;}
	.st1{fill:#D9232E;}
</style>
<g>
	<path class="st0" d="M82.8,108.2c1.6,0.8,3.2,0.7,4.7,0.7c36.4,0,72.8,0,109.2,0c0.7,0,1.4,0,2.1-0.1c4.6-0.4,7.1-2.5,7.7-7.1
		c0.4-3,0.4-6,0.4-9c0-15.8,0-31.7,0-47.5c0-9.1,1.3-10.4,10.5-9.9c0.9,0,1.7,0.1,2.5,0.3c2.6,0.6,3.7,1.7,4,4.3
		c0.2,1.3,0.1,2.6,0.1,3.8c0,15.3,0,30.6,0,45.8c0,1.6-0.1,3.1,0.1,4.7c0.4,5.9,3.1,10.3,8.7,12.6c3.2,1.3,6.5,2,10,2
		c16.4,0,32.8,0.1,49.3,0c6.6,0,9-2.3,9.6-8.9c0.3-3,0.2-6,0.3-9c0-15.7,0-31.4,0-47.1c0-7.4,1.2-8.6,8.8-8.6c0.4,0,0.9,0,1.3,0
		c5.7,0.2,7.1,1.5,7.1,7.1c0,15.7,0,31.4,0,47.1c0,1.7,0,3.4,0.1,5.1c0.2,5.3,2.7,9.2,7.5,11.6c3,1.5,6.1,2.5,9.4,2.5
		c6.4,0.1,12.8,0.1,19.3,0.1c4.4,0,7.6-2,9.7-5.9c2.2-4,2.8-8.3,2.8-12.8c-0.1-6.6-0.2-13.1-0.1-19.7c0.1-7.5,1.5-14.8,4-21.8
		c5.8-16.6,19-26.1,36.6-26.5c6.7-0.1,13.4,0.1,19.9,2.3c11.4,3.9,19.2,11.5,23.3,22.8c4.2,11.5,5.1,23.4,4.3,35.4
		c-0.3,3.8-0.5,7.7-0.4,11.5c0.1,2.7,0.6,5.4,1.7,7.9c1.8,4.1,4.8,6.7,9.6,6.7c9,0,18,0.2,27,0c5.6-0.1,8.2-2.9,8.6-8.6
		c0.1-2,0.1-4,0.1-6c0-28.6,0-57.1,0-85.7c0-7.8,0.8-8.6,8.6-8.6c7.6,0,8.6,1,8.6,8.6c0,28.6,0,57.1,0,85.7c0,5-0.5,10-1.7,14.9
		c-1.9,8-6.8,13.3-14.9,15.5c-3.2,0.9-6.4,1.5-9.7,1.5c-8.4,0-16.9,0.2-25.3-0.1c-8.3-0.3-16.2-2.1-22.3-8.4
		c-1.2-1.2-2.3-1.5-3.6-0.2c-6.1,6.2-13.9,8.7-22.3,9.8c-9,1.2-18,0.6-26.7-2.2c-4.7-1.5-9-3.6-12.5-7.2c-1.5-1.6-2.5-1.4-3.7,0.2
		c-3.9,5.2-9.6,7.4-15.7,7.7c-10.4,0.5-20.8,1-31.2-0.6c-5.5-0.8-10.6-2.4-14.3-7c-1.2-1.6-2.6-1.7-3.9-0.1c-5.4,6.6-12.7,8-20.8,8
		c-15.7-0.2-31.4-0.1-47.1,0c-4.2,0-8.2-0.7-12.3-1.5c-4.3-0.9-8-2.8-10.9-6.2c-1.9-2.2-2.2-2.3-3.9-0.2c-5.1,6.2-11.8,8-19.4,8
		c-35.4,0-70.8,0-106.2,0c-8.8,0-17.3-1.6-25.2-5.7c-1.6-0.8-3.1-1.2-4.9-0.6c-8.3,2.7-16.6,5.2-24.9,7.8c-4.8,1.5-9.3,3.6-13.3,6.7
		c-2.1,1.6-3.8,3.5-4.6,6c-1.7,5.6-1.4,11.9,6.9,13.9c3.6,0.8,7.3,1.4,11,1.5c7.1,0,14.3,0.1,21.4,0.1c1.3,0,2.6,0,3.8,0.2
		c2.6,0.4,3.8,1.6,4,4.3c0.2,2.8,0.1,5.7,0,8.6c-0.1,2.3-1.5,3.7-3.7,4.1c-1.1,0.2-2.3,0.2-3.4,0.2c-10.3,0.1-20.6,0-30.8-0.9
		c-4.7-0.4-9.3-1.4-13.7-3.2c-7.8-3.2-12.3-9-13.6-17.3c-0.6-4.2-0.6-8.6,0-12.8c1-6.9,4.5-12.6,9.8-17.1c5.5-4.7,12-7.7,18.8-10
		c5.1-1.7,10.4-3.2,15.6-4.7c4.4-1.4,4.5-1.4,3.3-6C43.7,85.9,35,73.4,22.2,63.9c-2.9-2.1-5.8-4.2-8.7-6.2c-2.1-1.4-3.1-3.2-3.1-5.7
		c0.1-3.4,0-6.9-0.1-10.3c-0.1-2.3,0.8-4.1,2.3-5.8c2.9-3.1,6.4-5.2,10.3-6.9c9.8-4.3,20-6.6,30.7-6.9c9.2-0.3,18.3-0.1,27.2,2.6
		c8.6,2.6,15.9,7,20.7,14.9c3.4,5.5,4.9,11.5,5.3,17.9c0.8,11.7-2.7,22.2-8.7,32.1c-3.4,5.7-7.6,10.7-12.4,15.2
		C84.6,105.8,83.4,106.6,82.8,108.2z M438.1,75.5c0.1-8.8-0.9-17.4-5.3-25.2c-2.7-4.8-6.6-8.1-11.9-9.8c-2.2-0.7-4.5-1-6.7-1.2
		c-13.7-0.9-21.5,4.4-25.6,15.3c-1.7,4.6-2.5,9.4-3,14.2c-0.9,8.9-0.3,17.7,2.4,26.2c3,9.8,10,15.1,20.2,15.5c2.6,0.1,5.1,0.1,7.7,0
		c9.5-0.6,16-5.4,19.3-14.4C437.6,89.5,438.2,82.5,438.1,75.5z M28.4,46.1c2.3,1.8,4.1,3.2,5.8,4.7c11.7,9.9,21.5,21.3,26.8,36
		c1.2,3.2,2.1,6.5,3,9.8c0.7,2.6,1.3,2.7,3.6,1.2c3.8-2.6,7.1-5.8,10-9.3c6.7-8.1,11.2-17.1,11-28c-0.1-7.2-3.2-12.6-9.3-16.3
		c-2.7-1.7-5.6-2.9-8.7-3.5C63.3,39,56,38.7,48.6,39.8C41.8,40.9,35.2,42.6,28.4,46.1z"/>
	<path class="st1" d="M850.7,122.1c-1.6-1.8-1.6-4.1-2.2-6.1c-3.1-11.1-7.2-21.7-13.8-31.2c-4-5.7-8.9-10.4-15.3-13.3
		c-10.6-4.8-20.7-2.4-30.4,2.7c-8.6,4.6-15.2,11.5-20.8,19.4c-6.6,9.3-11.4,19.4-15.9,29.8c-0.6,1.3-0.7,2.8-2.2,3.7
		c-1.7-0.8-1.6-2.5-2-3.9c-1.7-7-4.2-13.6-7.5-20c-2.1-3.9-4.5-7.6-7.4-11c-6.3-7.3-16.6-12.4-29-7.8c-10.4,3.9-17.8,11.2-23.5,20.3
		c-7.7,12.2-12.8,25.5-16.9,39.2c-6.2,20.4-10.6,41.2-13.9,62.2c-0.2,1.3,0,2.9-1.5,3.8c-1.4-0.5-1.4-1.8-1.7-2.8
		c-6.1-19.9-8.5-40.1-6.7-60.9c2.4-27.8,11.6-53.2,27.2-76.2c14.5-21.4,33.3-38.2,56-50.7c19.1-10.5,39.6-16.9,61.3-19.2
		c30.2-3.3,59.1,1.6,86.8,14.2c18.3,8.3,34.2,20,48.4,34.2c1.4,1.4,2.9,2.7,3.5,4.6c-0.6,1.4-1.7,1-2.7,1.1
		c-13.3,1.2-24.6,6.9-34.4,15.8c-9.8,8.8-17.1,19.5-23.6,30.8c-3.4,6-6.5,12.1-9.5,18.2C852.5,120.1,852.3,121.3,850.7,122.1z"/>
	<path class="st1" d="M916.8,123.2c9.4-0.3,16.9,4.5,23.1,11.8c7.1,8.3,11,18.3,14,28.6c2.7,9.2,4.5,18.6,5.8,28.1
		c0.6,4,0.2,7.9-1,11.8c-6.8,22.8-18,43.1-33.8,60.9c-20.4,23-45.3,38.9-74.5,48.2c-9.5,3-19.3,4.9-29.3,6.2
		c-1.6,0.2-3.1,0.2-4.7,0.2c-1.5,0-2-0.8-1.9-2.2c0.1-0.7,0.2-1.4,0.4-2.1c6.4-32.1,14.2-63.8,24.7-94.8c7-20.8,15-41.4,26.6-60.2
		c6.7-10.9,14.2-21.1,25.1-28.3C898.9,126.5,907,123.2,916.8,123.2z"/>
	<path class="st1" d="M794.3,319.8c-22.5-1.3-43.2-6.5-63-15.8c-3.9-1.8-4.1-2.4-3.5-6.7c4.4-32.1,10.3-64,19.6-95.1
		c5.3-17.7,11.5-35,21.2-50.9c4.4-7.1,9.4-13.7,16.2-18.6c3.6-2.6,7.5-4.6,11.8-5.9c10.6-3.2,19.4-0.3,26.6,8
		c6.3,7.3,9.6,16.1,12.5,25.1c0.6,1.9,0,3.6-0.6,5.4c-6.6,19.9-12.3,40.1-17.2,60.5c-7.1,29.3-13.1,58.8-17.7,88.6
		C799.2,320.3,798.3,319.8,794.3,319.8z"/>
	<path class="st1" d="M712.1,129.3c5.6,0,10,2.5,13.6,6.3c4.2,4.4,6.9,9.7,9.1,15.4c4.3,11.3,4.3,11.3,1.3,23
		c-7.5,29.3-12.9,59.1-16.9,89.1c-1.2,8.9-2.3,17.8-3.5,26.7c-0.1,0.7-0.2,1.4-0.4,2.1c-0.4,1.6-1.4,2.1-2.9,1.3
		c-1-0.6-2-1.2-2.9-1.8c-20.1-13.8-36.3-31.2-48.6-52.2c-1.4-2.4-2.2-4.9-1.7-7.7c4.1-22.8,9-45.3,17.8-66.9
		c3.1-7.6,6.8-14.8,11.7-21.3c4.9-6.4,10.8-11.3,18.8-13.3c0.8-0.2,1.7-0.4,2.5-0.5C710.8,129.3,711.5,129.3,712.1,129.3z"/>
	<path class="st0" d="M134.8,276.4c0-10.8,0-21.7,0-32.5c0-1.4,0-2.9,0.2-4.3c0.2-1.5,0.9-2.7,2.2-3.5c3.2-2,9.8-1.3,12.3,1.5
		c1.1,1.3,1.8,1.4,3.1,0.6c7.7-4.9,16.1-5.2,24.8-3.7c5.4,0.9,10,3.4,13.6,7.5c1.3,1.5,2.3,1.8,3.8,0.3c9.2-9,20.5-10,32.3-7.5
		c9.5,2.1,15.7,8.3,18.9,17.5c1.4,4.1,2,8.3,2.1,12.6c0,15,0,30,0,44.9c0,1.6,0.1,3.2-0.6,4.6c-1.6,3.3-4.6,2.8-7.4,2.8
		c-2.7,0-5.6,0.2-7-3c-0.7-1.6-0.6-3.4-0.6-5.1c0-13.6,0-27.1,0-40.7c0-3-0.2-6-0.9-8.9c-1.4-5.8-5-9.5-11-10.6
		c-2.7-0.5-5.4-0.6-8.1-0.1c-7.4,1.4-12.6,7.3-13.2,14.8c-0.1,1.7-0.1,3.4-0.1,5.1c0,13.7,0,27.4,0,41.1c0,5.9-1.5,7.2-7.4,7.3
		c-0.9,0-1.7,0-2.6,0c-3.8-0.3-5.3-1.7-5.6-5.6c-0.1-1.3,0-2.6,0-3.9c0-13.1,0-26.3,0-39.4c0-3.2-0.2-6.3-1-9.3
		c-1.5-5.2-4.7-8.7-10.1-9.9c-3.1-0.7-6.2-0.8-9.3-0.1c-7.8,1.8-12.6,7.8-12.7,16.1c-0.1,12.6-0.1,25.1-0.1,37.7c0,2.6,0,5.1,0,7.7
		c-0.1,5.1-1.6,6.5-6.7,6.7c-0.4,0-0.9,0-1.3,0c-6.1,0-7.5-1.4-7.6-7.6C134.8,298.6,134.8,287.5,134.8,276.4z"/>
	<path class="st0" d="M45.4,289.7c-5.4,0-10.8,0-16.3,0c-4.3,0-4.5,0.2-5.9,4.1c-2.2,5.9-4.2,11.8-6.4,17.7
		c-1.9,5.2-2.9,5.8-8.6,5.8c-0.7,0-1.4,0-2.1,0c-5.5-0.2-7.1-2.5-5.2-7.8c4.7-13.2,9.4-26.3,14.2-39.5c7.2-20,14.4-40,21.7-60
		c0.4-1.1,0.7-2.2,1.2-3.2c0.4-0.9,1-1.8,1.7-2.4c4-3.5,12.6-1.5,14.5,3.4c2.5,6.5,4.8,13.1,7.2,19.7c9.7,27.1,19.4,54.3,29,81.4
		c0.3,0.9,0.7,1.9,0.9,2.9c0.5,2.8-0.9,5-3.7,5.3c-2.7,0.3-5.4,0.2-8.1,0c-2.6-0.2-3.7-2.3-4.5-4.6c-2.2-6-4.4-12.1-6.5-18.1
		c-1.7-4.7-1.7-4.7-6.7-4.7C56.2,289.7,50.8,289.7,45.4,289.7z M45.9,232.6c-0.6,0-0.9,0.4-1,0.8c-4.5,12.4-9.1,24.9-13.5,37.4
		c-0.9,2.5-0.4,3.1,2.3,3.1c5.6,0.1,11.1,0,16.7,0c2.7,0,5.4,0,8.1,0c2,0,2.5-1,1.9-2.7c-0.1-0.4-0.3-0.8-0.4-1.2
		c-4.1-11.5-8.2-23.1-12.4-34.6C47,234.3,47,233.1,45.9,232.6z"/>
	<path class="st0" d="M455.4,281.9c-6.4,0-12.8,0-19.3,0c-4.5,0-5.2,0.9-4.6,5.4c1.9,12.5,10.4,17.8,22.7,16.3
		c5.1-0.6,9.5-2.8,13-6.7c1.8-1.9,3.6-4,6.6-3c3,1,5.5,3.1,6.9,6c1.1,2.3,0,4.5-1.6,6.3c-4.1,4.8-9.1,8.3-15,10.3
		c-8.6,3-17.3,3.3-26.1,0.7c-9.2-2.7-15.5-8.7-19.3-17.5c-1.5-3.4-2.5-7-2.8-10.7c-0.9-9.4-1.1-18.8,0.4-28.1
		c2.9-18,16.9-27.7,32.9-27.4c10.7,0.2,19.5,3.8,26.1,12.3c4.7,6,6.6,13.2,7.2,20.7c0.3,3.3,0.3,6.6,0.1,9.8c-0.1,3-1.4,4.4-4.3,5
		c-1.5,0.3-3.1,0.4-4.7,0.4C467.6,282,461.5,281.9,455.4,281.9C455.4,281.9,455.4,281.9,455.4,281.9z M449.2,267.3
		C449.2,267.3,449.2,267.3,449.2,267.3c4.3,0,8.5,0,12.8,0c1,0,2,0,3-0.1c1.4-0.1,2.1-0.9,1.9-2.3c-1-6.3-3-11.9-9.4-14.8
		c-3.1-1.4-6.3-1.6-9.6-1.5c-9.1,0.2-15,5.5-16.3,14.4c-0.5,3.3,0.2,4.2,3.5,4.3C439.8,267.4,444.5,267.3,449.2,267.3z"/>
	<path class="st0" d="M324.3,285.3c0,8.1,0,16.3,0,24.4c0,1.3-0.1,2.6-0.3,3.8c-0.3,1.5-1.2,2.8-2.6,3.1c-3.7,0.9-7.7,1.7-11-1
		c-1.7-1.4-2.9-1.2-4.5-0.4c-8.3,4.1-17,4.6-25.9,2.7c-16.9-3.7-25.1-21.3-17.3-36.8c2.5-5.1,6.6-8.6,11.8-10.6
		c5.9-2.4,12.1-3.1,18.4-3.2c4-0.1,8,0,12-0.1c3.5-0.1,3.8-0.5,3.9-4.1c0.1-2.1-0.1-4.3-0.5-6.4c-0.7-4.6-3.5-7.3-7.9-7.8
		c-8.4-1-16.8-1.5-24.2,4c-3,2.3-5.4,1.7-7.8-1.2c-4.6-5.6-4.2-8.5,1.8-12.5c1.9-1.3,3.9-2.3,6.1-3.1c10.3-3.5,20.7-3.6,31.2-1.1
		c9,2.2,14,8.4,15.9,17.2c0.7,3.2,1.1,6.5,1,9.8C324.2,269.9,324.3,277.6,324.3,285.3z M296.2,282c0,0.1,0,0.2,0,0.3
		c-3.4,0-6.8,0-10.3,0c-1,0-2,0.4-2.9,0.7c-5.1,1.5-7.5,4.7-7.5,10.1c0,5.3,2.4,8.7,7.4,10.2c5.2,1.5,10.5,1.4,15.6-0.1
		c7.1-2.1,10-6.1,10.1-13.5c0-1.4,0.1-2.9,0-4.3c-0.2-2.7-0.6-3.2-3.4-3.3C302.2,281.9,299.2,282,296.2,282z"/>
	<path class="st0" d="M554.8,285c0,8.4,0,16.8,0,25.3c0,5.6-1.5,7-7.2,7.1c-2.7,0-5.4,0.2-7.5-2.2c-1.3-1.5-2.6-0.4-3.8,0.2
		c-8.3,4.1-17,4.6-25.9,2.7c-17.9-4-25.8-24-15.7-39.4c2.5-3.8,6.1-6.4,10.3-8c5.8-2.3,11.9-3,18-3.2c4.1-0.1,8.3,0,12.4-0.1
		c3.2-0.1,3.7-0.6,3.8-3.8c0.1-2.6,0.1-5.1-0.5-7.7c-0.9-3.3-2.7-5.7-6.2-6.4c-8.7-1.5-17.3-2.2-25.2,3.2c-4.1,2.8-6.4,2.2-9.3-1.9
		c-0.5-0.7-1-1.4-1.4-2.2c-1.6-3-1.3-4.9,1.3-7.2c2.4-2.1,5.1-3.7,8-4.8c11-4,22.1-4.1,33.2-1c7.1,2,11.6,7,13.9,14
		c1.2,3.7,1.8,7.5,1.8,11.4C554.8,269,554.8,277,554.8,285z M521.1,304c1.4,0,2.9,0.1,4.3,0c9.2-1,13.8-6.1,13.8-15.1
		c0-0.9,0-1.7,0-2.6c-0.1-3.8-0.5-4.2-4.2-4.3c-5.3-0.1-10.5,0.1-15.8,0.1c-2.2,0-4.3,0.4-6.3,1.1c-4.2,1.4-6.6,4.6-6.8,9.4
		c-0.2,4.7,1.8,8.1,5.8,10C514.8,303.9,517.9,304.2,521.1,304z"/>
	<path class="st0" d="M340.2,276.2c0-11.3,0-22.5,0-33.8c0-2.8-0.1-5.7,3.2-6.7c3.6-1.1,7.8-1.8,10.5,1.2c2.1,2.5,3.4,1.5,5.2,0.5
		c7.3-4.2,15.3-4.6,23.3-2.9c12.9,2.7,21.1,12.8,21.7,26.2c0.3,7.3,0.2,14.6,0.2,21.8c0,9.3,0,18.5,0,27.8c0,5.7-1.3,6.9-7.1,7
		c-0.9,0-1.7,0-2.6,0c-3.7-0.2-5.1-1.6-5.4-5.2c-0.1-1.1,0-2.3,0-3.4c0-11.7,0-23.4,0-35.1c0-4-0.3-8-0.8-11.9
		c-0.9-7.9-6.1-12.5-14-12.8c-4.4-0.2-8.5,0.5-12.2,3.2c-3.4,2.5-5.5,5.7-6,9.9c-0.4,3.1-0.7,6.2-0.7,9.4c0,12.7,0,25.4,0,38.1
		c0,1.3,0.1,2.6-0.2,3.8c-0.6,3.3-2.3,4.2-8.1,4.1c-4.6-0.1-6.2-1.1-6.7-4.3c-0.2-1.3-0.1-2.6-0.1-3.8
		C340.2,298.2,340.2,287.2,340.2,276.2z"/>
	<path class="st0" d="M554.7,63.1c0,17.3,0,34.5,0,51.8c0,1.1,0,2.3,0,3.4c0,7-0.9,7.9-7.9,7.9c-1.4,0-2.9,0.1-4.3,0
		c-3.3-0.2-4.5-1.4-4.9-4.7c-0.1-1.3-0.1-2.6-0.1-3.8c0-36.4,0-72.8,0-109.2c0-7.4,1-8.4,8.3-8.4c8,0,8.8,0.8,8.8,8.8
		C554.7,26.9,554.7,45,554.7,63.1z"/>
	<path class="st0" d="M113.7,252.9c0,13,0,26,0,38.9c0,1.4,0,2.9,0,4.3c0.3,5.3,0.8,5.8,6.2,6.6c6,0.9,8.8,8.2,5.2,13.1
		c-1.1,1.5-2.7,2-4.5,2.2c-3.7,0.3-7.4-0.1-11-1.1c-7-2.1-9.9-7.3-10.8-14c-0.5-3.7-0.8-7.4-0.8-11.1c0-26.1,0-52.2,0-78.3
		c0-2,0-4,0.4-6c0.5-2.6,2.1-4,4.6-4.3c0.8-0.1,1.7-0.1,2.6-0.1c6.6-0.1,8,1.2,8.1,7.9C113.8,224.9,113.7,238.9,113.7,252.9z"/>
	<path class="st0" d="M319,11.8c0,2.1,0.1,4.3,0,6.4c-0.2,3-1.4,4.4-4.5,4.8c-4.1,0.5-8.3,0.5-12.4,0c-2.8-0.3-4-1.7-4.3-4.5
		c-0.4-4.5-0.4-9.1,0-13.6c0.3-3.2,1.8-4.5,5.1-4.7c3.7-0.2,7.4-0.2,11.1,0c3.2,0.2,4.6,1.7,4.9,4.8C319.2,7.2,319,9.5,319,11.8
		C319,11.8,319,11.8,319,11.8z"/>
	<path class="st0" d="M207,153.9c0,2.3,0.1,4.6,0,6.8c-0.2,3.2-1.4,4.5-4.4,4.7c-4,0.2-8,0.2-11.9,0c-3-0.2-4.3-1.6-4.4-4.7
		c-0.2-4.4-0.2-8.8,0-13.2c0.1-3.1,1.4-4.4,4.5-4.5c4-0.2,8-0.2,11.9,0c3.2,0.1,4.2,1.2,4.3,4.6C207.1,149.6,207.1,151.8,207,153.9
		C207,153.9,207,153.9,207,153.9z"/>
	<path class="st0" d="M217,154c0-2.4-0.1-4.8,0-7.2c0.2-2.5,1.2-3.6,3.8-3.7c4.3-0.2,8.5-0.2,12.8,0c2.6,0.1,3.9,1.3,4.1,4
		c0.2,4.7,0.2,9.4,0,14.1c-0.1,2.8-1.6,4.2-4.3,4.3c-4,0.2-8,0.2-11.9,0c-3-0.1-4.2-1.5-4.4-4.7C216.8,158.5,216.9,156.2,217,154
		C217,154,217,154,217,154z"/>
</g>
</svg>
