<svg width="33" height="33" viewBox="0 0 33 33" fill="none" xmlns="http://www.w3.org/2000/svg">
<g clip-path="url(#clip0_239_10551)">
<path d="M3.66586 15.9844V15.5702C3.66586 12.6701 3.66586 9.76937 3.66586 6.86812C3.66672 5.48969 4.52008 4.64062 5.89508 4.64062C12.9843 4.64062 20.0733 4.64062 27.162 4.64062C28.5577 4.64062 29.405 5.48883 29.4059 6.88703C29.4059 8.18641 29.4059 9.48492 29.4059 10.829C29.729 10.829 30.0358 10.829 30.3417 10.829C31.6093 10.835 32.4902 11.709 32.4902 12.9774C32.4902 17.3929 32.4902 21.8086 32.4902 26.2247C32.4902 27.4862 31.6016 28.3645 30.334 28.3654C24.414 28.3654 18.4941 28.3654 12.5741 28.3654C12.0705 28.3654 11.9013 28.1935 11.8995 27.6873C11.8995 27.2465 11.8944 26.8065 11.8995 26.3656C11.9055 25.9849 12.0963 25.7933 12.4779 25.789C13.0021 25.7821 13.5263 25.789 14.0677 25.789C14.1537 25.4452 14.2336 25.1161 14.3187 24.7689H9.84391V26.0803C9.84391 27.5258 9.00859 28.3662 7.57344 28.3671C5.97615 28.3671 4.37828 28.3671 2.77984 28.3671C1.44695 28.3671 0.578984 27.5017 0.578125 26.1748C0.578125 23.5102 0.578125 20.8461 0.578125 18.1827C0.578984 16.8438 1.44695 15.9844 2.77984 15.9844H3.66586ZM28.3763 10.8281V10.5041C28.3763 9.2907 28.3763 8.07669 28.3763 6.86211C28.3763 6.0732 27.975 5.67102 27.1912 5.67102C20.0911 5.67102 12.9912 5.67102 5.89164 5.67102C5.08898 5.67102 4.69625 6.06977 4.69625 6.88359C4.69625 9.79516 4.69625 12.7067 4.69625 15.6183V15.9844H5.08297C5.98359 15.9844 6.88766 15.9775 7.78484 15.9844C8.26717 15.9795 8.73528 16.1476 9.10435 16.4582C9.47341 16.7688 9.71901 17.2013 9.79664 17.6773C9.85852 18.0331 9.83789 18.4044 9.84047 18.7687C9.84562 19.5499 9.84047 20.3302 9.84047 21.1166H19.1097V20.7453C19.1097 18.1672 19.1097 15.5891 19.1097 13.0109C19.1097 11.7004 19.9811 10.8273 21.2865 10.8255C23.2384 10.8255 25.1903 10.8255 27.1423 10.8255L28.3763 10.8281ZM1.6068 22.1547C1.6068 23.5177 1.6068 24.8815 1.6068 26.2445C1.6068 26.8709 2.03648 27.3204 2.63805 27.3238C4.35279 27.3319 6.06724 27.3319 7.78141 27.3238C7.91642 27.3261 8.05053 27.3013 8.17575 27.2507C8.30096 27.2002 8.41474 27.125 8.51031 27.0296C8.60587 26.9342 8.68128 26.8205 8.73204 26.6954C8.7828 26.5703 8.80787 26.4362 8.80578 26.3012C8.81266 23.5426 8.81266 20.784 8.80578 18.0254C8.80423 17.7595 8.69853 17.5049 8.51135 17.3161C8.32417 17.1273 8.07043 17.0194 7.80461 17.0156C7.67656 17.0096 7.5468 17.0277 7.41961 17.0105C7.20133 16.9812 7.08875 17.0595 7.03203 17.2777C6.95297 17.5777 6.84469 17.8698 6.74328 18.1637C6.71155 18.2846 6.63864 18.3905 6.53713 18.4633C6.43562 18.5361 6.31188 18.5712 6.18727 18.5625C5.75758 18.5625 5.32789 18.5625 4.8982 18.5625C3.73547 18.5625 3.83344 18.6699 3.46133 17.5175C3.29805 17.0122 3.29461 17.013 2.76695 17.0156C2.00984 17.0156 1.60508 17.4281 1.60422 18.1964C1.60536 19.5147 1.60622 20.8341 1.6068 22.1547ZM31.4649 19.623C31.4649 17.4212 31.4649 15.2192 31.4649 13.017C31.4649 12.271 31.0541 11.8568 30.3142 11.8559C27.3127 11.8559 24.3103 11.8559 21.3071 11.8559C20.5474 11.8559 20.1409 12.2667 20.1409 13.0333C20.1409 17.4058 20.1409 21.778 20.1409 26.1499C20.1409 26.9165 20.5466 27.3264 21.3071 27.3264C24.2995 27.3264 27.2912 27.3264 30.2824 27.3264C31.0679 27.3264 31.4649 26.9251 31.4658 26.1327C31.4664 23.9625 31.4661 21.7926 31.4649 19.623ZM19.0899 23.7041V22.1959H9.86195V23.7041H19.0899ZM19.3357 27.3195C19.2979 26.8838 19.0727 26.797 18.6903 26.8039C16.8916 26.8263 15.0938 26.8142 13.2952 26.8142H12.9583V27.3221L19.3357 27.3195ZM15.142 25.7666H17.9272C17.8413 25.4229 17.7622 25.0946 17.6814 24.7672H15.3903C15.3087 25.0938 15.2313 25.4057 15.142 25.7666ZM4.41008 17.0234C4.52266 17.5312 4.52266 17.5312 4.98414 17.5312H5.46539C5.92945 17.5312 5.92945 17.5312 5.99477 17.0259L4.41008 17.0234ZM19.004 25.7761L19.0899 25.7563V24.744L18.7462 24.7698C18.8364 25.1264 18.9198 25.4513 19.004 25.7761Z" fill="#F28F3B"/>
<path d="M3.3919 26.8124C3.14526 26.8124 2.89776 26.821 2.65198 26.8124C2.32971 26.7987 2.11487 26.5744 2.12432 26.283C2.12495 26.215 2.13928 26.1477 2.16645 26.0853C2.19363 26.0229 2.23309 25.9666 2.28249 25.9198C2.33189 25.8729 2.39022 25.8365 2.454 25.8127C2.51777 25.7889 2.58569 25.7782 2.6537 25.7812C3.15729 25.7709 3.66117 25.7709 4.16534 25.7812C4.23271 25.7784 4.29995 25.7891 4.36313 25.8127C4.42631 25.8362 4.48416 25.8721 4.5333 25.9183C4.58243 25.9645 4.62186 26.02 4.64928 26.0816C4.67671 26.1432 4.69157 26.2096 4.693 26.277C4.70245 26.5684 4.48589 26.7927 4.16362 26.8055C3.90667 26.8184 3.64885 26.8124 3.3919 26.8124Z" fill="#F28F3B"/>
<path d="M5.95248 26.8057C5.85643 26.8143 5.75979 26.8143 5.66373 26.8057C5.38702 26.755 5.22631 26.5848 5.216 26.2995C5.2125 26.1687 5.26054 26.0418 5.34977 25.9462C5.439 25.8505 5.56226 25.7937 5.69295 25.7882C5.87464 25.7757 6.05697 25.7757 6.23866 25.7882C6.54545 25.8062 6.75428 26.0185 6.75428 26.3038C6.75428 26.5891 6.54803 26.7953 6.24295 26.8194C6.14756 26.8263 6.05045 26.8194 5.9542 26.8194L5.95248 26.8057Z" fill="#F28F3B"/>
<path d="M30.9506 18.8504C30.9506 20.7519 30.9506 22.6534 30.9506 24.5549C30.9506 25.1024 30.789 25.2639 30.2416 25.2639H21.3617C20.8151 25.2639 20.6553 25.1032 20.6553 24.5541C20.6553 20.7299 20.6553 16.9051 20.6553 13.0797C20.6553 12.5314 20.8143 12.3716 21.3625 12.3716H30.2425C30.7899 12.3716 30.9506 12.5323 30.9506 13.0814C30.9517 15.0041 30.9517 16.9271 30.9506 18.8504ZM21.6986 24.2095H29.8953V13.42H21.6986V24.2095Z" fill="#F28F3B"/>
<path d="M25.2861 26.8125C25.1842 26.8125 25.0845 26.7823 24.9997 26.7256C24.9149 26.6689 24.8488 26.5884 24.8098 26.4942C24.7707 26.4 24.7605 26.2963 24.7804 26.1963C24.8003 26.0963 24.8494 26.0044 24.9215 25.9323C24.9936 25.8602 25.0855 25.8111 25.1855 25.7912C25.2856 25.7713 25.3892 25.7815 25.4835 25.8205C25.5777 25.8595 25.6582 25.9256 25.7149 26.0104C25.7715 26.0952 25.8018 26.1949 25.8018 26.2969C25.8018 26.4336 25.7474 26.5648 25.6507 26.6615C25.554 26.7582 25.4229 26.8125 25.2861 26.8125Z" fill="#F28F3B"/>
</g>
<defs>
<clipPath id="clip0_239_10551">
<rect width="33" height="33" fill="white"/>
</clipPath>
</defs>
</svg>
