<svg width="1299" height="420" viewBox="0 0 1299 420" fill="none" xmlns="http://www.w3.org/2000/svg">
<g clip-path="url(#clip0_195_1035)">
<rect width="1299" height="420" fill="#00355F"/>
<path d="M110.669 153.515C114.013 157.068 119.657 157.173 123.21 153.829L137.318 140.348L149.963 153.515C153.307 157.068 158.95 157.173 162.503 153.829L179.746 137.317C183.299 133.973 183.404 128.33 180.06 124.777L163.548 107.534C160.204 103.981 154.561 103.876 151.008 107.22L136.9 120.701L124.359 107.534C121.015 103.981 115.372 103.876 111.819 107.22L94.5757 123.732C91.0226 127.076 90.918 132.719 94.2622 136.272L110.669 153.515Z" fill="white"/>
<path d="M340.264 328.036C336.92 324.483 331.277 324.379 327.723 327.723L313.511 341.204L300.971 328.036C297.626 324.483 291.983 324.379 288.43 327.723L271.187 344.234C267.634 347.578 267.529 353.221 270.873 356.775L287.385 374.018C290.729 377.571 296.372 377.675 299.925 374.331L314.033 360.85L326.678 374.018C330.023 377.571 335.666 377.675 339.219 374.331L356.462 357.82C360.015 354.476 360.12 348.832 356.775 345.279L340.264 328.036Z" fill="white"/>
<path d="M364.718 179.746C359.91 184.239 357.193 190.51 357.193 197.093V236.282H357.298C357.298 246.001 355.312 253.003 351.341 257.183C347.37 261.154 340.577 263.14 331.172 263.14H319.99H297.626H293.969C284.563 263.14 277.771 261.154 273.799 257.183C269.828 252.898 267.843 245.897 267.843 236.282V146.096C267.843 144.842 266.275 144.11 265.335 145.051L228.34 179.641C223.533 184.135 220.816 190.405 220.816 196.989V235.969C220.816 245.688 218.831 252.689 214.859 256.869C210.888 261.05 204.096 263.244 194.69 263.244H73.048C63.6427 263.244 56.7455 261.259 52.5653 257.287C48.5942 253.003 46.6086 246.001 46.6086 235.969V179.746C46.6086 178.492 45.0411 177.76 44.1005 178.701L7.41976 213.187C2.71709 217.576 0 223.742 0 230.325V238.895C0 258.541 5.32968 274.635 15.9891 287.071C27.9025 301.283 44.414 308.39 65.6283 308.39H198.766C217.158 308.39 232.416 303.478 244.329 293.864C256.034 303.583 271.082 308.39 289.475 308.39H297.626H319.99H335.561C355.208 308.39 371.197 302.851 383.319 291.565C397.218 278.815 404.22 261.259 404.22 238.581V146.305C404.22 145.051 402.652 144.319 401.712 145.26L364.718 179.746Z" fill="white"/>
<path d="M915.556 144.528L878.562 179.119C873.755 183.612 871.038 189.883 871.038 196.466V235.76C871.038 245.478 869.052 252.48 865.081 256.66C861.11 260.631 854.317 262.617 844.912 262.617H819.517C810.112 262.617 803.215 260.631 799.035 256.66C795.063 252.376 793.078 245.374 793.078 235.76V157.591C793.078 156.337 791.51 155.605 790.57 156.546L753.575 191.137C748.768 195.63 746.051 201.9 746.051 208.484V235.864C746.051 245.583 744.066 252.585 740.095 256.765C736.123 260.736 729.331 262.722 719.925 262.722H694.531C685.126 262.722 678.333 260.736 674.362 256.765C670.391 252.48 668.405 245.478 668.405 235.864V158.113C668.405 156.859 666.838 156.128 665.897 157.068L629.007 191.555C624.2 196.048 621.483 202.318 621.483 208.798V235.864C621.483 245.583 619.393 252.585 615.108 256.765C611.137 260.736 604.344 262.722 594.939 262.722H577.905H555.437H544.464C535.058 262.722 528.266 260.736 524.295 256.765C520.323 252.48 518.338 245.478 518.338 235.864V70.7484C518.338 69.4944 516.77 68.7628 515.83 69.7034L478.94 104.19C474.133 108.683 471.416 114.953 471.416 121.537V238.163C471.416 257.81 476.745 273.903 487.405 286.339C499.841 300.761 517.293 307.972 539.97 307.972H555.437H577.905H599.851C618.243 307.972 633.292 302.537 644.996 291.565C656.701 302.537 671.749 307.972 690.142 307.972H727.032C744.693 307.763 758.905 302.224 769.565 291.565C781.269 302.537 796.317 307.972 814.71 307.972H851.704C870.933 307.449 886.295 301.597 897.895 290.52C911.271 277.77 918.064 260.422 918.064 238.268V145.782C918.064 144.319 916.601 143.692 915.556 144.528Z" fill="white"/>
<path d="M1297.1 57.6854V1.56698C1297.1 0.208429 1295.43 -0.523096 1294.49 0.417436L1110.66 173.057L1028 95.6202C1024.14 91.9626 1019.01 89.977 1013.68 89.977H952.655C951.192 89.977 950.565 91.7536 951.61 92.6941L1074.09 207.439L925.379 346.951C921.199 350.923 918.796 356.461 918.796 362.209V418.327C918.796 419.686 920.468 420.417 921.408 419.477L1290.41 72.9429C1294.7 68.9718 1297.1 63.4331 1297.1 57.6854Z" fill="white"/>
<path d="M1130.31 257.914L1164.8 225.518C1165.32 224.996 1166.26 224.996 1166.78 225.518L1298.25 348.519C1299.19 349.46 1298.56 351.132 1297.2 351.132H1235.65C1230.43 351.132 1225.3 349.146 1221.44 345.593L1130.1 260.214C1129.68 259.482 1129.68 258.541 1130.31 257.914Z" fill="white"/>
</g>
<defs>
<clipPath id="clip0_195_1035">
<rect width="1299" height="420" fill="white"/>
</clipPath>
</defs>
</svg>
