<svg width="118" height="40" viewBox="0 0 118 40" fill="none" xmlns="http://www.w3.org/2000/svg">
    <rect width="118" height="40" fill="#00355F" />
    <mask id="mask0_192_1035" style="mask-type:luminance" maskUnits="userSpaceOnUse" x="0" y="0"
        width="118" height="40">
        <path d="M117.214 0H0V40H117.214V0Z" fill="white" />
    </mask>
    <g mask="url(#mask0_192_1035)">
        <mask id="mask1_192_1035" style="mask-type:luminance" maskUnits="userSpaceOnUse" x="0" y="0"
            width="116" height="41">
            <path d="M115.821 0H0V40.0995H115.821V0Z" fill="white" />
        </mask>
        <g mask="url(#mask1_192_1035)">
            <path fill-rule="evenodd" clip-rule="evenodd"
                d="M36.0289 0.24945V5.59406C36.0289 6.14146 35.7999 6.66896 35.4018 7.04716L0.248818 40.0504C0.159244 40.14 0 40.0703 0 39.9409V34.5963C0 34.0489 0.228913 33.5214 0.627022 33.1432L14.7798 19.8563L3.1152 8.92823C3.01568 8.83865 3.07539 8.66945 3.21473 8.66945H9.03707C9.54466 8.66945 10.0323 8.85856 10.4006 9.2069L18.2732 16.5819L35.78 0.13997C35.8696 0.0503952 36.0289 0.120064 36.0289 0.24945ZM23.4287 21.5781L20.1443 24.6635C20.0846 24.7232 20.0846 24.8127 20.1244 24.8824L28.8231 33.0138C29.1913 33.3522 29.679 33.5413 30.1767 33.5413H36.0388C36.1682 33.5413 36.2279 33.382 36.1383 33.2925L23.6178 21.5781C23.5681 21.5284 23.4785 21.5284 23.4287 21.5781Z"
                fill="white" />
            <path
                d="M60.871 8.70898H45.932C42.1898 8.70898 39.1641 11.7346 39.1641 15.4768V26.813C39.1641 30.5552 42.1898 33.5808 45.932 33.5808H60.871C60.9507 33.5808 61.0104 33.5211 61.0104 33.4415V28.9429C61.0104 28.8632 60.9507 28.8035 60.871 28.8035H45.932C44.8372 28.8035 43.9414 27.9078 43.9414 26.813V15.4768C43.9414 14.382 44.8372 13.4863 45.932 13.4863H60.871C60.9507 13.4863 61.0104 13.4266 61.0104 13.347V8.84832C61.0104 8.7687 60.9507 8.70898 60.871 8.70898Z"
                fill="white" />
            <path
                d="M70.4255 8.69922H65.9269C65.8473 8.69922 65.7876 8.75894 65.7876 8.83856V33.4417C65.7876 33.5213 65.8473 33.581 65.9269 33.581H70.4255C70.5052 33.581 70.5649 33.5213 70.5649 33.4417V8.83856C70.5649 8.75894 70.5052 8.69922 70.4255 8.69922Z"
                fill="white" />
            <path
                d="M70.4255 0.736328H65.9269C65.8473 0.736328 65.7876 0.796044 65.7876 0.875666V4.77713C65.7876 4.85676 65.8473 4.91647 65.9269 4.91647H70.4255C70.5052 4.91647 70.5649 4.85676 70.5649 4.77713V0.875666C70.5649 0.796044 70.5052 0.736328 70.4255 0.736328Z"
                fill="white" />
            <path
                d="M88.6092 8.69907H80.1494V0.846369C80.1494 0.766748 80.0897 0.707031 80.0101 0.707031H75.5114C75.4318 0.707031 75.3721 0.766748 75.3721 0.846369V26.813C75.3721 30.5553 78.3977 33.5809 82.14 33.5809H88.6092C88.6889 33.5809 88.7486 33.5212 88.7486 33.4415V28.9429C88.7486 28.8633 88.6889 28.8036 88.6092 28.8036H82.14C81.0452 28.8036 80.1494 27.9078 80.1494 26.813V13.4764H88.6092C88.6889 13.4764 88.7486 13.4167 88.7486 13.337V8.83841C88.7486 8.75879 88.6889 8.69907 88.6092 8.69907Z"
                fill="white" />
            <path
                d="M115.75 23.5284V15.4866C115.75 11.7444 112.725 8.71875 108.982 8.71875H98.6317C94.8895 8.71875 91.8638 11.7444 91.8638 15.4866V26.8029C91.8638 30.5451 94.8895 33.5707 98.6317 33.5707H115.611C115.69 33.5707 115.75 33.511 115.75 33.4314V28.9327C115.75 28.8531 115.69 28.7934 115.611 28.7934H98.6317C97.5369 28.7934 96.6412 27.8977 96.6412 26.8029V23.8071C96.6412 23.7275 96.7009 23.6677 96.7805 23.6677H115.611C115.69 23.6677 115.75 23.608 115.75 23.5284ZM96.6412 15.4866C96.6412 14.3918 97.5369 13.4961 98.6317 13.4961H108.982C110.077 13.4961 110.973 14.3918 110.973 15.4866V18.6814C110.973 18.761 110.913 18.8208 110.834 18.8208H96.7805C96.7009 18.8208 96.6412 18.761 96.6412 18.6814V15.4866Z"
                fill="white" />
        </g>
    </g>
</svg>